<?xml version="1.0" encoding="UTF-8" standalone="no"?>
<!DOCTYPE svg PUBLIC "-//W3C//DTD SVG 1.1//EN"
 "http://www.w3.org/Graphics/SVG/1.1/DTD/svg11.dtd">
<!-- Generated by graphviz version 2.44.0 (20200408.0750)
 -->
<!-- Pages: 1 -->
<svg width="357pt" height="44pt"
 viewBox="0.00 0.00 357.00 44.00" xmlns="http://www.w3.org/2000/svg" xmlns:xlink="http://www.w3.org/1999/xlink">
<g id="graph0" class="graph" transform="scale(1 1) rotate(0) translate(4 40)">
<polygon fill="white" stroke="transparent" points="-4,4 -4,-40 353,-40 353,4 -4,4"/>
<!-- input -->
<g id="node1" class="node">
<title>input</title>
<polygon fill="none" stroke="black" points="54,-36 0,-36 0,0 54,0 54,-36"/>
<text text-anchor="middle" x="27" y="-14.3" font-family="Times,serif" font-size="14.00">input</text>
</g>
<!-- crawling -->
<g id="node2" class="node">
<title>crawling</title>
<polygon fill="none" stroke="black" points="154,-36 90,-36 90,0 154,0 154,-36"/>
<text text-anchor="middle" x="122" y="-14.3" font-family="Times,serif" font-size="14.00">crawling</text>
</g>
<!-- input&#45;&gt;crawling -->
<g id="edge1" class="edge">
<title>input&#45;&gt;crawling</title>
<path fill="none" stroke="black" d="M54.4,-18C62.27,-18 71.08,-18 79.66,-18"/>
<polygon fill="black" stroke="black" points="79.92,-21.5 89.92,-18 79.92,-14.5 79.92,-21.5"/>
</g>
<!-- planning -->
<g id="node3" class="node">
<title>planning</title>
<polygon fill="none" stroke="black" points="254,-36 190,-36 190,0 254,0 254,-36"/>
<text text-anchor="middle" x="222" y="-14.3" font-family="Times,serif" font-size="14.00">planning</text>
</g>
<!-- crawling&#45;&gt;planning -->
<g id="edge2" class="edge">
<title>crawling&#45;&gt;planning</title>
<path fill="none" stroke="black" d="M154.01,-18C162.14,-18 171.04,-18 179.62,-18"/>
<polygon fill="black" stroke="black" points="179.86,-21.5 189.86,-18 179.86,-14.5 179.86,-21.5"/>
</g>
<!-- printing -->
<g id="node4" class="node">
<title>printing</title>
<polygon fill="none" stroke="black" points="349,-36 290,-36 290,0 349,0 349,-36"/>
<text text-anchor="middle" x="319.5" y="-14.3" font-family="Times,serif" font-size="14.00">printing</text>
</g>
<!-- planning&#45;&gt;printing -->
<g id="edge3" class="edge">
<title>planning&#45;&gt;printing</title>
<path fill="none" stroke="black" d="M254.01,-18C262.21,-18 271.18,-18 279.74,-18"/>
<polygon fill="black" stroke="black" points="279.91,-21.5 289.91,-18 279.91,-14.5 279.91,-21.5"/>
</g>
</g>
</svg>
